<svg width="14" height="15" viewBox="0 0 14 15" fill="none" xmlns="http://www.w3.org/2000/svg">
<path d="M12.3646 1.5H9.17014C8.84916 0.63 8.00852 0 7.01502 0C6.02153 0 5.18088 0.63 4.85991 1.5H1.66544C0.824796 1.5 0.136993 2.175 0.136993 3V13.5C0.136993 14.325 0.824796 15 1.66544 15H12.3646C13.2052 15 13.8931 14.325 13.8931 13.5V3C13.8931 2.175 13.2052 1.5 12.3646 1.5ZM7.01502 1.5C7.43535 1.5 7.77925 1.8375 7.77925 2.25C7.77925 2.6625 7.43535 3 7.01502 3C6.5947 3 6.2508 2.6625 6.2508 2.25C6.2508 1.8375 6.5947 1.5 7.01502 1.5ZM5.48657 12L2.42967 9L3.50723 7.9425L5.48657 9.8775L10.5228 4.935L11.6004 6L5.48657 12Z" fill="white" fill-opacity="0.6"/>
</svg>
