<svg width="17" height="11" viewBox="0 0 17 11" fill="none" xmlns="http://www.w3.org/2000/svg">
<path d="M15.3045 0V10.5H16.833V0H15.3045ZM12.2476 10.5H13.7761V0H12.2476V10.5ZM9.95495 0H0.784245C0.363921 0 0.0200195 0.3375 0.0200195 0.75V9.75C0.0200195 10.1625 0.363921 10.5 0.784245 10.5H9.95495C10.3753 10.5 10.7192 10.1625 10.7192 9.75V0.75C10.7192 0.3375 10.3753 0 9.95495 0ZM5.3696 2.0625C6.31724 2.0625 7.08911 2.82 7.08911 3.75C7.08911 4.68 6.31724 5.4375 5.3696 5.4375C4.42196 5.4375 3.65009 4.68 3.65009 3.75C3.65009 2.82 4.42196 2.0625 5.3696 2.0625ZM8.80861 9H1.93058V8.4375C1.93058 7.3125 4.22326 6.75 5.3696 6.75C6.51594 6.75 8.80861 7.3125 8.80861 8.4375V9Z" fill="white" fill-opacity="0.6"/>
</svg>
