<svg width="19" height="18" viewBox="0 0 19 18" fill="none" xmlns="http://www.w3.org/2000/svg">
<g clip-path="url(#clip0)">
<path d="M13.3628 9C11.2535 9 9.54163 10.68 9.54163 12.75C9.54163 14.82 11.2535 16.5 13.3628 16.5C15.472 16.5 17.1839 14.82 17.1839 12.75C17.1839 10.68 15.472 9 13.3628 9ZM14.6237 14.5125L12.9806 12.9V10.5H13.7449V12.5925L15.1587 13.98L14.6237 14.5125ZM14.127 2.25H11.6967C11.3758 1.38 10.5351 0.75 9.54163 0.75C8.54814 0.75 7.70749 1.38 7.38651 2.25H4.95628C4.11563 2.25 3.42783 2.925 3.42783 3.75V15C3.42783 15.825 4.11563 16.5 4.95628 16.5H9.62569C9.1748 16.0725 8.80797 15.5625 8.54049 15H4.95628V3.75H6.48473V6H12.5985V3.75H14.127V7.56C14.6696 7.635 15.1816 7.7925 15.6554 8.01V3.75C15.6554 2.925 14.9676 2.25 14.127 2.25ZM9.54163 3.75C9.12131 3.75 8.7774 3.4125 8.7774 3C8.7774 2.5875 9.12131 2.25 9.54163 2.25C9.96195 2.25 10.3059 2.5875 10.3059 3C10.3059 3.4125 9.96195 3.75 9.54163 3.75Z" fill="white" fill-opacity="0.6"/>
</g>
<defs>
<clipPath id="clip0">
<rect width="18.3414" height="18" fill="white" transform="translate(0.370911)"/>
</clipPath>
</defs>
</svg>
