<svg width="19" height="18" viewBox="0 0 19 18" fill="none" xmlns="http://www.w3.org/2000/svg">
<path d="M13.1225 8.25V2.25H5.48024V5.25H2.42334V15.75H8.53714V12.75H10.0656V15.75H16.1794V8.25H13.1225ZM5.48024 14.25H3.95179V12.75H5.48024V14.25ZM5.48024 11.25H3.95179V9.75H5.48024V11.25ZM5.48024 8.25H3.95179V6.75H5.48024V8.25ZM8.53714 11.25H7.00869V9.75H8.53714V11.25ZM8.53714 8.25H7.00869V6.75H8.53714V8.25ZM8.53714 5.25H7.00869V3.75H8.53714V5.25ZM11.594 11.25H10.0656V9.75H11.594V11.25ZM11.594 8.25H10.0656V6.75H11.594V8.25ZM11.594 5.25H10.0656V3.75H11.594V5.25ZM14.6509 14.25H13.1225V12.75H14.6509V14.25ZM14.6509 11.25H13.1225V9.75H14.6509V11.25Z" fill="white" fill-opacity="0.6"/>
</svg>
